<?xml version="1.0" encoding="UTF-8" standalone="no"?>
<!-- Created with Inkscape (http://www.inkscape.org/) -->

<svg
   xmlns:dc="http://purl.org/dc/elements/1.1/"
   xmlns:cc="http://creativecommons.org/ns#"
   xmlns:rdf="http://www.w3.org/1999/02/22-rdf-syntax-ns#"
   xmlns:svg="http://www.w3.org/2000/svg"
   xmlns="http://www.w3.org/2000/svg"
   xmlns:sodipodi="http://sodipodi.sourceforge.net/DTD/sodipodi-0.dtd"
   xmlns:inkscape="http://www.inkscape.org/namespaces/inkscape"
   width="302.25"
   height="176.09375"
   id="svg2"
   version="1.1"
   inkscape:version="0.48.4 r9939"
   sodipodi:docname="ramp-diagram.png">
  <defs
     id="defs4">
    <inkscape:perspective
       sodipodi:type="inkscape:persp3d"
       inkscape:vp_x="20.714286 : 379.75252 : 1"
       inkscape:vp_y="6.1230318e-014 : 1000 : 0"
       inkscape:vp_z="744.09448 : 526.18109 : 1"
       inkscape:persp3d-origin="372.04724 : 350.78739 : 1"
       id="perspective2985" />
  </defs>
  <sodipodi:namedview
     id="base"
     pagecolor="#ffffff"
     bordercolor="#666666"
     borderopacity="1.0"
     inkscape:pageopacity="0.0"
     inkscape:pageshadow="2"
     inkscape:zoom="2.8"
     inkscape:cx="192.12763"
     inkscape:cy="81.208981"
     inkscape:document-units="px"
     inkscape:current-layer="layer1"
     showgrid="true"
     inkscape:snap-grids="true"
     fit-margin-top="0"
     fit-margin-left="0"
     fit-margin-right="0"
     fit-margin-bottom="0"
     inkscape:window-width="1440"
     inkscape:window-height="844"
     inkscape:window-x="-4"
     inkscape:window-y="-4"
     inkscape:window-maximized="1">
    <inkscape:grid
       type="xygrid"
       id="grid3003"
       empspacing="5"
       visible="true"
       enabled="true"
       snapvisiblegridlinesonly="true"
       originx="26.125px"
       originy="0.54407px" />
  </sodipodi:namedview>
  <metadata
     id="metadata7">
    <rdf:RDF>
      <cc:Work
         rdf:about="">
        <dc:format>image/svg+xml</dc:format>
        <dc:type
           rdf:resource="http://purl.org/dc/dcmitype/StillImage" />
        <dc:title></dc:title>
      </cc:Work>
    </rdf:RDF>
  </metadata>
  <g
     inkscape:label="Layer 1"
     inkscape:groupmode="layer"
     id="layer1"
     transform="translate(26.125,-876.8125)">
    <g
       id="g3445">
      <g
         id="g3156"
         transform="translate(0,2.6171874e-6)">
        <path
           style="fill:none;stroke:#000000;stroke-width:1px;stroke-linecap:butt;stroke-linejoin:miter;stroke-opacity:1"
           d="m 175,952.36218 0,75.00002"
           id="path3066"
           inkscape:connector-curvature="0" />
        <path
           style="fill:none;stroke:#000000;stroke-width:1px;stroke-linecap:butt;stroke-linejoin:miter;stroke-opacity:1"
           d="m 175,1027.3622 -50,25 -50,-25 50,-100.00002"
           id="path3068"
           inkscape:connector-curvature="0" />
        <path
           style="fill:none;stroke:#000000;stroke-width:1px;stroke-linecap:butt;stroke-linejoin:miter;stroke-opacity:1"
           d="M 175,952.36218 125,1052.3622"
           id="path3070"
           inkscape:connector-curvature="0" />
        <path
           style="fill:none;stroke:#000000;stroke-width:1px;stroke-linecap:butt;stroke-linejoin:miter;stroke-opacity:1"
           d="m 225,927.36218 0,75.00002 -50,25"
           id="path3143"
           inkscape:connector-curvature="0" />
      </g>
      <g
         id="g3225">
        <path
           style="fill:none;stroke:#000000;stroke-width:1px;stroke-linecap:butt;stroke-linejoin:miter;stroke-opacity:1"
           d="m 175,1002.3622 -50,-25.00002 -50,-25 -50,-25 50,-25 50,-25 150,75 z"
           id="path3056"
           inkscape:connector-curvature="0" />
        <path
           style="fill:none;stroke:#000000;stroke-width:1px;stroke-linecap:butt;stroke-linejoin:miter;stroke-opacity:1"
           d="m 75,902.36218 150,75"
           id="path3058"
           inkscape:connector-curvature="0" />
        <path
           style="fill:none;stroke:#000000;stroke-width:1px;stroke-linecap:butt;stroke-linejoin:miter;stroke-opacity:1"
           d="m 175,902.36218 -100,50"
           id="path3060"
           inkscape:connector-curvature="0" />
        <path
           style="fill:none;stroke:#000000;stroke-width:1px;stroke-linecap:butt;stroke-linejoin:miter;stroke-opacity:1"
           d="m 225,927.36218 -100,50"
           id="path3064"
           inkscape:connector-curvature="0" />
        <path
           style="fill:none;stroke:#000000;stroke-width:1px;stroke-linecap:butt;stroke-linejoin:miter;stroke-opacity:1"
           d="m 75,952.36218 -50,25"
           id="path3084"
           inkscape:connector-curvature="0" />
        <path
           style="fill:none;stroke:#000000;stroke-width:1px;stroke-linecap:butt;stroke-linejoin:miter;stroke-opacity:1"
           d="M 125,977.36218 75,1002.3622"
           id="path3086"
           inkscape:connector-curvature="0" />
        <path
           style="fill:none;stroke:#000000;stroke-width:1px;stroke-linecap:butt;stroke-linejoin:miter;stroke-opacity:1"
           d="m 175,1002.3622 -50,25 -150,-75.00002 50,-25"
           id="path3090"
           inkscape:connector-curvature="0" />
      </g>
      <path
         inkscape:connector-curvature="0"
         id="path3414"
         d="m 201.09192,964.52852 c -13.20982,-6.60404 -24.01786,-12.08882 -24.01786,-12.18839 0,-0.0996 10.80804,-5.58435 24.01786,-12.18839 l 24.01785,-12.00735 24.01786,12.00735 c 13.20982,6.60404 24.01786,12.08882 24.01786,12.18839 0,0.0996 -10.80804,5.58434 -24.01786,12.18838 l -24.01786,12.00735 -24.01785,-12.00734 z"
         style="opacity:0.5;fill:#00ff00" />
      <path
         inkscape:connector-curvature="0"
         id="path3416"
         d="m 151.09192,939.52852 c -13.20982,-6.60404 -24.01786,-12.08882 -24.01786,-12.18839 0,-0.0996 10.80804,-5.58435 24.01786,-12.18839 l 24.01785,-12.00735 24.01786,12.00735 c 13.20982,6.60404 24.01786,12.08882 24.01786,12.18839 0,0.0996 -10.80804,5.58434 -24.01786,12.18838 l -24.01786,12.00735 -24.01785,-12.00734 z"
         style="opacity:0.5;fill:#00ff00" />
      <path
         inkscape:connector-curvature="0"
         id="path3418"
         d="M 101.09192,914.52852 C 87.882095,907.92448 77.07406,902.4397 77.07406,902.34013 c 0,-0.0996 10.808035,-5.58435 24.01786,-12.18839 l 24.01785,-12.00735 24.01786,12.00735 c 13.20982,6.60404 24.01786,12.08882 24.01786,12.18839 0,0.0996 -10.80804,5.58434 -24.01786,12.18838 l -24.01786,12.00735 -24.01785,-12.00734 z"
         style="opacity:0.5;fill:#00ff00" />
      <path
         inkscape:connector-curvature="0"
         id="path3420"
         d="M 51.091917,939.52852 C 37.882095,932.92448 27.07406,927.4397 27.07406,927.34013 c 0,-0.0996 10.808035,-5.58435 24.017857,-12.18839 l 24.017857,-12.00735 24.017857,12.00735 c 13.209819,6.60404 24.017859,12.08882 24.017859,12.18839 0,0.0996 -10.80804,5.58434 -24.017859,12.18838 L 75.109774,951.53586 51.091917,939.52852 z"
         style="opacity:0.5;fill:#ff0000" />
      <path
         inkscape:connector-curvature="0"
         id="path3422"
         d="M 1.0919168,964.52852 C -12.117905,957.92448 -22.92594,952.4397 -22.92594,952.34013 c 0,-0.0996 10.808035,-5.58435 24.0178568,-12.18839 l 24.0178572,-12.00735 24.017857,12.00735 c 13.209822,6.60404 24.017857,12.08882 24.017857,12.18839 0,0.0996 -10.808035,5.58434 -24.017857,12.18838 L 25.109774,976.53586 1.0919168,964.52852 z"
         style="opacity:0.5;fill:#ff0000" />
      <path
         inkscape:connector-curvature="0"
         id="path3424"
         d="M 51.091917,989.52852 C 37.882095,982.92448 27.07406,977.4397 27.07406,977.34013 c 0,-0.0996 10.808035,-5.58435 24.017857,-12.18839 l 24.017857,-12.00735 24.017857,12.00735 c 13.209819,6.60404 24.017859,12.08882 24.017859,12.18839 0,0.0996 -10.80804,5.58434 -24.017859,12.18838 L 75.109774,1001.5359 51.091917,989.52852 z"
         style="opacity:0.5;fill:#ff0000" />
      <path
         inkscape:connector-curvature="0"
         id="path3426"
         d="m 101.09192,1014.5285 c -13.209825,-6.604 -24.01786,-12.0888 -24.01786,-12.1884 0,-0.1 10.808035,-5.58432 24.01786,-12.18836 l 24.01785,-12.00735 24.01786,12.00735 c 13.20982,6.60404 24.01786,12.08886 24.01786,12.18836 0,0.1 -10.80804,5.5844 -24.01786,12.1884 l -24.01786,12.0074 -24.01785,-12.0074 z"
         style="opacity:0.5;fill:#ff0000" />
      <path
         inkscape:connector-curvature="0"
         id="path3428"
         d="m 151.09192,989.52852 c -13.20982,-6.60404 -24.01786,-12.08882 -24.01786,-12.18839 0,-0.0996 10.80804,-5.58435 24.01786,-12.18839 l 24.01785,-12.00735 24.01786,12.00735 c 13.20982,6.60404 24.01786,12.08882 24.01786,12.18839 0,0.0996 -10.80804,5.58434 -24.01786,12.18838 l -24.01786,12.00739 -24.01785,-12.00738 z"
         style="opacity:0.5;fill:#ff0000" />
    </g>
  </g>
</svg>
